<svg width="35" height="35" viewBox="0 0 35 35" fill="none" xmlns="http://www.w3.org/2000/svg">
<path fill-rule="evenodd" clip-rule="evenodd" d="M18.3125 4H8.77083C6.13574 4 4 6.13574 4 8.77083V27.8542C4 30.4893 6.13574 32.625 8.77083 32.625H27.8542C30.4893 32.625 32 30.6351 32 28V18.3125C32 17.4347 31.9126 16.5 31.0347 16.5C30.1569 16.5 30 17.4347 30 18.3125V27.8542C30 28.732 28.732 30.5 27.8542 30.5H8.77083C7.893 30.5 6.5 28.732 6.5 27.8542V8.77083C6.5 7.893 7.893 6 8.77083 6H18.3125C19.1903 6 20 5.87783 20 5C20 4.12217 19.1903 4 18.3125 4ZM29 6L17.5 17.5C16.8798 18.1202 16.568 18.8166 17.1882 19.4368C17.8084 20.057 18.3798 20.057 19 19.4368L30 7.5V11.9514C30 12.8292 30.1569 13.5 31.0347 13.5C31.9126 13.5 32 12.8778 32 12V5.5C32 4.5 31.9126 4 31.0347 4H24.7134C23.8355 4 23.5 4.12217 23.5 5C23.5 5.87783 23.8355 6 24.7134 6H29Z" fill="#FFA407"/>
</svg>
