<svg width="35" height="35" viewBox="0 0 35 35" fill="none" xmlns="http://www.w3.org/2000/svg">
<path d="M27.7087 5.10425C28.9191 5.10425 29.8962 6.08133 29.8962 7.29175V27.7084C29.8962 28.9188 28.9191 29.8959 27.7087 29.8959H7.29199C6.08158 29.8959 5.10449 28.9188 5.10449 27.7084V7.29175C5.10449 6.08133 6.08158 5.10425 7.29199 5.10425H27.7087ZM27.7087 2.91675H7.29199C4.87116 2.91675 2.91699 4.87091 2.91699 7.29175V27.7084C2.91699 30.1292 4.87116 32.0834 7.29199 32.0834H27.7087C30.1295 32.0834 32.0837 30.1292 32.0837 27.7084V7.29175C32.0837 4.87091 30.1295 2.91675 27.7087 2.91675Z" fill="#FFA407"/>
<path d="M17.5 25.8855C16.9021 25.8855 16.4062 25.3897 16.4062 24.7917V11.6667C16.4062 11.0688 16.9021 10.573 17.5 10.573C18.0979 10.573 18.5938 11.0688 18.5938 11.6667V24.7917C18.5938 25.3897 18.0979 25.8855 17.5 25.8855Z" fill="#FFA407"/>
<path d="M11.667 25.8853C11.0691 25.8853 10.5732 25.3895 10.5732 24.7916V18.9583C10.5732 18.3603 11.0691 17.8645 11.667 17.8645C12.2649 17.8645 12.7607 18.3603 12.7607 18.9583V24.7916C12.7607 25.3895 12.2649 25.8853 11.667 25.8853Z" fill="#FFA407"/>
<path d="M23.333 25.8855C22.7351 25.8855 22.2393 25.3897 22.2393 24.7917V16.0417C22.2393 15.4438 22.7351 14.948 23.333 14.948C23.9309 14.948 24.4268 15.4438 24.4268 16.0417V24.7917C24.4268 25.3897 23.9309 25.8855 23.333 25.8855Z" fill="#FFA407"/>
</svg>
