<svg width="35" height="35" viewBox="0 0 35 35" fill="none" xmlns="http://www.w3.org/2000/svg">
<path d="M26.1186 14.6708C27.5113 13.7594 28.43 12.1844 28.43 10.4052C28.43 7.59061 26.1404 5.30103 23.3258 5.30103C20.5113 5.30103 18.2217 7.59061 18.2217 10.4052C18.2217 12.1917 19.1477 13.7666 20.5404 14.6781C19.855 14.9114 19.1915 15.2323 18.5717 15.6333C18.2363 15.8521 18.1415 16.3041 18.3602 16.6396C18.579 16.975 19.0311 17.0698 19.3738 16.851C20.555 16.0781 21.9258 15.6625 23.3331 15.6625C27.3508 15.6625 30.6248 18.9802 30.6248 23.0635C30.6248 23.45 30.5883 23.851 30.5154 24.2958C30.4498 24.6896 30.7196 25.0687 31.1133 25.1344C31.1571 25.1344 31.1936 25.1416 31.2373 25.1416C31.5873 25.1416 31.8936 24.8864 31.9592 24.5291C32.0467 24.0041 32.0904 23.5229 32.0904 23.0562C32.0904 19.1552 29.5821 15.8448 26.1186 14.6635V14.6708ZM23.3258 14.051C21.3133 14.051 19.68 12.4177 19.68 10.4052C19.68 8.39269 21.3133 6.75936 23.3258 6.75936C25.3383 6.75936 26.9717 8.39269 26.9717 10.4052C26.9717 12.4177 25.3383 14.051 23.3258 14.051Z" fill="#FFA407"/>
<path d="M11.6665 15.6625C13.0811 15.6625 14.4519 16.0708 15.6258 16.851C15.9613 17.0698 16.4133 16.9823 16.6394 16.6396C16.8581 16.3042 16.7706 15.8521 16.4279 15.6333C15.8081 15.225 15.1519 14.9114 14.4592 14.6781C15.8519 13.7666 16.7779 12.1917 16.7779 10.4052C16.7779 7.59061 14.4883 5.30103 11.6738 5.30103C8.85918 5.30103 6.5696 7.59061 6.5696 10.4052C6.5696 12.1917 7.49564 13.7594 8.88106 14.6708C5.41751 15.8521 2.90918 19.1625 2.90918 23.0635C2.90918 23.5302 2.95293 24.0114 3.04043 24.5364C3.09876 24.8937 3.40501 25.1489 3.7623 25.1489C3.79876 25.1489 3.84251 25.1489 3.88626 25.1417C4.28001 25.076 4.5498 24.6969 4.48418 24.3031C4.41126 23.8583 4.3748 23.45 4.3748 23.0708C4.3748 18.9948 7.64876 15.6698 11.6665 15.6698V15.6625ZM8.02793 10.4052C8.02793 8.39269 9.66126 6.75936 11.6738 6.75936C13.6863 6.75936 15.3196 8.39269 15.3196 10.4052C15.3196 12.4177 13.6863 14.051 11.6738 14.051C9.66126 14.051 8.02793 12.4177 8.02793 10.4052Z" fill="#FFA407"/>
<path d="M23.8219 19.6875H11.1782C10.7188 19.6875 10.2886 19.899 10.0115 20.2708C9.73442 20.6427 9.64692 21.1021 9.77088 21.5469L10.8136 25.1927C10.9886 25.8125 11.5646 26.25 12.2136 26.25H22.7792C23.4282 26.25 24.0042 25.8125 24.1792 25.1927L25.2219 21.5469C25.3459 21.1021 25.2657 20.6354 24.9813 20.2708C24.6969 19.9062 24.2813 19.6875 23.8146 19.6875H23.8219ZM22.7792 24.7917H12.2136L11.1709 21.1458H23.8219L22.7792 24.7917Z" fill="#FFA407"/>
<path d="M23.3337 27.7083C22.9326 27.7083 22.6045 28.0364 22.6045 28.4374V30.5593C22.6045 30.9603 22.9326 31.2885 23.3337 31.2885C23.7347 31.2885 24.0628 30.9603 24.0628 30.5593V28.4374C24.0628 28.0364 23.7347 27.7083 23.3337 27.7083Z" fill="#FFA407"/>
<path d="M11.6667 27.7083C11.2656 27.7083 10.9375 28.0364 10.9375 28.4374V30.5593C10.9375 30.9603 11.2656 31.2885 11.6667 31.2885C12.0677 31.2885 12.3958 30.9603 12.3958 30.5593V28.4374C12.3958 28.0364 12.0677 27.7083 11.6667 27.7083Z" fill="#FFA407"/>
</svg>
