<svg width="32" height="33" viewBox="0 0 32 33" fill="none" xmlns="http://www.w3.org/2000/svg">
<g clip-path="url(#clip0_338_890)">
<path d="M31.7223 23.7826L28.4423 22.1426L26.3548 16.7126C26.3303 16.6484 26.2927 16.5899 26.2445 16.5409C26.1964 16.4918 26.1386 16.4533 26.0748 16.4276L13.1223 11.2501C13.0318 11.214 12.9326 11.2052 12.8371 11.2248C12.7416 11.2443 12.6539 11.2913 12.5848 11.3601L10.8573 13.0876C10.7895 13.1567 10.7432 13.2441 10.7242 13.3391C10.7051 13.4341 10.714 13.5326 10.7498 13.6226L15.9273 26.5751C15.953 26.6388 15.9916 26.6966 16.0406 26.7448C16.0897 26.7929 16.1481 26.8305 16.2123 26.8551L21.6423 28.9426L23.2823 32.2226C23.3169 32.2949 23.3683 32.3578 23.4322 32.4061C23.4962 32.4544 23.5708 32.4866 23.6498 32.5001C23.6764 32.5025 23.7032 32.5025 23.7298 32.5001C23.8622 32.4995 23.989 32.4465 24.0823 32.3526L31.8523 24.5826C31.9095 24.5274 31.9527 24.4594 31.9784 24.3841C32.004 24.3089 32.0114 24.2287 31.9998 24.1501C31.9864 24.071 31.9542 23.9964 31.9059 23.9325C31.8576 23.8685 31.7946 23.8171 31.7223 23.7826ZM11.7973 13.5576L12.0748 13.2826L18.5223 19.7301C18.0974 20.3322 17.9139 21.0718 18.0081 21.8027C18.1022 22.5336 18.4672 23.2025 19.0309 23.6773C19.5945 24.152 20.3158 24.398 21.0521 24.3665C21.7884 24.335 22.486 24.0284 23.0071 23.5073C23.5282 22.9862 23.8348 22.2886 23.8663 21.5523C23.8977 20.8161 23.6518 20.0948 23.177 19.5311C22.7023 18.9675 22.0333 18.6025 21.3025 18.5083C20.5716 18.4141 19.8319 18.5976 19.2298 19.0226L12.7823 12.5751L13.0573 12.2976L25.4998 17.2751L27.4623 22.3801L21.8798 27.9626L16.7748 26.0001L11.7973 13.5576ZM20.9248 19.4826C21.3742 19.4832 21.8094 19.6397 22.1564 19.9253C22.5034 20.2108 22.7406 20.6079 22.8276 21.0487C22.9147 21.4896 22.8462 21.947 22.6339 22.343C22.4215 22.739 22.0784 23.0492 21.663 23.2206C21.2476 23.3921 20.7857 23.4142 20.3558 23.2832C19.9259 23.1523 19.5548 22.8763 19.3056 22.5024C19.0563 22.1285 18.9445 21.6797 18.989 21.2325C19.0335 20.7854 19.2317 20.3675 19.5498 20.0501C19.9149 19.6862 20.4094 19.4821 20.9248 19.4826ZM23.8673 31.1551L22.6173 28.6551L28.1498 23.1226L30.6498 24.3726L23.8673 31.1551Z" fill="#4CF4CD"/>
<path d="M9.56257 27.2499C9.46696 27.1596 9.34039 27.1092 9.20882 27.1092C9.07726 27.1092 8.95069 27.1596 8.85507 27.2499L8.22007 27.8849C6.52552 25.5851 5.59069 22.8138 5.54588 19.9574C5.50107 17.1011 6.3485 14.3018 7.97007 11.9499C8.4559 12.2173 9.01527 12.32 9.56437 12.2426C10.1135 12.1653 10.6227 11.9121 11.0158 11.521C11.4089 11.1299 11.6646 10.6219 11.7447 10.0732C11.8248 9.52449 11.725 8.96461 11.4601 8.47745C13.812 6.85587 16.6112 6.00844 19.4676 6.05326C22.3239 6.09807 25.0952 7.03289 27.3951 8.72745L26.7501 9.35495C26.6571 9.44869 26.605 9.57541 26.6051 9.70745C26.6047 9.77325 26.6173 9.83848 26.6422 9.8994C26.6671 9.96032 26.7037 10.0157 26.7501 10.0624L28.9551 12.2499C29.0488 12.3431 29.1755 12.3953 29.3076 12.3953C29.4397 12.3953 29.5664 12.3431 29.6601 12.2499L31.8526 10.0574C31.8991 10.011 31.9359 9.95586 31.9611 9.89517C31.9863 9.83447 31.9992 9.7694 31.9992 9.7037C31.9992 9.63799 31.9863 9.57292 31.9611 9.51223C31.9359 9.45153 31.8991 9.39638 31.8526 9.34995L29.6601 7.15745C29.5664 7.06432 29.4397 7.01205 29.3076 7.01205C29.1755 7.01205 29.0488 7.06432 28.9551 7.15745L28.1076 7.99995C26.0188 6.42819 23.5494 5.44069 20.9528 5.13885C18.3563 4.83702 15.7262 5.23173 13.3326 6.28245L16.2151 3.40745C16.5419 3.56362 16.9135 3.59897 17.2639 3.50722C17.6143 3.41548 17.9209 3.20258 18.1293 2.90629C18.3377 2.61001 18.4344 2.24948 18.4022 1.88868C18.3701 1.52788 18.2112 1.19013 17.9537 0.93535C17.6962 0.680569 17.3568 0.525229 16.9957 0.496888C16.6346 0.468546 16.2751 0.569036 15.981 0.780529C15.6869 0.992022 15.4773 1.30085 15.3892 1.65221C15.3012 2.00358 15.3405 2.37478 15.5001 2.69995L10.6351 7.57245C10.1411 7.2411 9.54743 7.09153 8.95544 7.1493C8.36345 7.20706 7.80988 7.46858 7.38929 7.88916C6.9687 8.30975 6.70719 8.86332 6.64943 9.45531C6.59166 10.0473 6.74123 10.641 7.07257 11.1349L2.20007 15.9999C1.87363 15.8409 1.50136 15.8027 1.14942 15.8922C0.797486 15.9817 0.488668 16.193 0.277848 16.4887C0.0670272 16.7844 -0.0321422 17.1452 -0.00203837 17.5071C0.0280654 17.869 0.185493 18.2085 0.442269 18.4653C0.699046 18.722 1.03854 18.8795 1.40043 18.9096C1.76231 18.9397 2.12315 18.8405 2.41883 18.6297C2.7145 18.4188 2.92586 18.11 3.01534 17.7581C3.10483 17.4062 3.06664 17.0339 2.90757 16.7074L5.79007 13.8324C4.7383 16.2254 4.34235 18.8551 4.64286 21.4517C4.94338 24.0482 5.92953 26.518 7.50007 28.6074L6.65507 29.4549C6.56195 29.5486 6.50968 29.6754 6.50968 29.8074C6.50968 29.9395 6.56195 30.0663 6.65507 30.1599L8.84757 32.3524C8.94091 32.4463 9.06768 32.4994 9.20007 32.4999C9.26605 32.5 9.33139 32.487 9.39232 32.4617C9.45324 32.4364 9.50856 32.3992 9.55507 32.3524L11.7501 30.1599C11.8432 30.0663 11.8955 29.9395 11.8955 29.8074C11.8955 29.6754 11.8432 29.5486 11.7501 29.4549L9.56257 27.2499ZM29.3126 8.21245L30.7976 9.69745L29.3126 11.1824L27.8276 9.69745L29.3126 8.21245ZM16.5001 1.65745C16.5744 1.58254 16.6692 1.5314 16.7727 1.5105C16.8761 1.4896 16.9834 1.49989 17.0809 1.54007C17.1785 1.58024 17.2619 1.64849 17.3206 1.73615C17.3793 1.82382 17.4106 1.92694 17.4106 2.03245C17.4106 2.13795 17.3793 2.24107 17.3206 2.32874C17.2619 2.4164 17.1785 2.48465 17.0809 2.52483C16.9834 2.565 16.8761 2.57529 16.7727 2.55439C16.6692 2.5335 16.5744 2.48235 16.5001 2.40745C16.4508 2.35822 16.4117 2.29977 16.385 2.23542C16.3583 2.17108 16.3446 2.1021 16.3446 2.03245C16.3446 1.96279 16.3583 1.89382 16.385 1.82947C16.4117 1.76513 16.4508 1.70667 16.5001 1.65745ZM8.10007 8.59995C8.24526 8.45406 8.41784 8.3383 8.6079 8.2593C8.79796 8.18031 9.00175 8.13965 9.20757 8.13965C9.41339 8.13965 9.61719 8.18031 9.80725 8.2593C9.9973 8.3383 10.1699 8.45406 10.3151 8.59995C10.5345 8.81906 10.6841 9.09836 10.7448 9.4025C10.8055 9.70663 10.7746 10.0219 10.656 10.3085C10.5374 10.5951 10.3365 10.84 10.0787 11.0124C9.82086 11.1847 9.5177 11.2767 9.20757 11.2767C8.89744 11.2767 8.59428 11.1847 8.33646 11.0124C8.07863 10.84 7.87772 10.5951 7.75915 10.3085C7.64058 10.0219 7.60969 9.70663 7.67038 9.4025C7.73106 9.09836 7.8806 8.81906 8.10007 8.59995ZM1.91007 17.7499C1.808 17.8351 1.67777 17.8789 1.54499 17.8729C1.41222 17.8669 1.28648 17.8115 1.1925 17.7175C1.09851 17.6235 1.04307 17.4978 1.03707 17.365C1.03107 17.2322 1.07495 17.102 1.16007 16.9999C1.26012 16.9016 1.39479 16.8465 1.53507 16.8465C1.67535 16.8465 1.81002 16.9016 1.91007 16.9999C1.95936 17.0492 1.99846 17.1076 2.02513 17.172C2.05181 17.2363 2.06554 17.3053 2.06554 17.3749C2.06554 17.4446 2.05181 17.5136 2.02513 17.5779C1.99846 17.6423 1.95936 17.7007 1.91007 17.7499ZM9.20757 31.2824L7.72257 29.7974L9.20757 28.3124L10.6926 29.7974L9.20757 31.2824Z" fill="#4CF4CD"/>
</g>
<defs>
<clipPath id="clip0_338_890">
<rect width="32" height="32" fill="white" transform="translate(0 0.5)"/>
</clipPath>
</defs>
</svg>
