<svg width="32" height="33" viewBox="0 0 32 33" fill="none" xmlns="http://www.w3.org/2000/svg">
<g clip-path="url(#clip0_338_893)">
<path d="M28.5719 0.5H3.42892C3.11303 0.5 2.85742 0.75561 2.85742 1.07149V31.9285C2.85742 32.2444 3.11303 32.5 3.42892 32.5H28.5717C28.8876 32.5 29.1432 32.2444 29.1432 31.9285V1.07149C29.1432 0.75561 28.8876 0.5 28.5719 0.5ZM28.0004 31.3572H4.00041V1.64284H28.0004V31.3572Z" fill="#4CF4CD"/>
<path d="M8.57135 27.357H23.4284C23.7443 27.357 23.9999 27.1014 23.9999 26.7855V25.0712C23.9999 25.0573 23.993 25.0456 23.992 25.0319C23.9911 25.0197 23.9966 25.0082 23.9949 24.996L22.8571 16.4623V6.78561C22.8571 6.46972 22.6015 6.21411 22.2856 6.21411H9.71434C9.39845 6.21411 9.14284 6.46972 9.14284 6.78561V16.4623L8.00499 24.996C8.00337 25.0082 8.00865 25.0197 8.00792 25.0319C8.00689 25.0457 8 25.0573 8 25.0712V26.7855C8.00015 27.1014 8.25561 27.357 8.57135 27.357ZM10.2858 7.3571H21.7144V15.9285H10.2858V7.3571ZM10.215 17.0713H21.7852L22.7757 24.4999H9.22438L10.215 17.0713ZM9.14299 25.6427H22.8572V26.2142H9.14299V25.6427Z" fill="#4CF4CD"/>
</g>
<defs>
<clipPath id="clip0_338_893">
<rect width="32" height="32" fill="white" transform="translate(0 0.5)"/>
</clipPath>
</defs>
</svg>
