<svg width="35" height="35" viewBox="0 0 35 35" fill="none" xmlns="http://www.w3.org/2000/svg">
<g clip-path="url(#clip0_329_956)">
<path d="M17.663 9.06813V5.31944H9.55225V19.7007H17.663V15.9521" stroke="#4CF4CD" stroke-width="1.3" stroke-miterlimit="10"/>
<path d="M16.5695 23.6536H10.645V19.7004H16.5695V23.6536Z" stroke="#4CF4CD" stroke-width="1.3" stroke-miterlimit="10"/>
<mask id="mask0_329_956" style="mask-type:luminance" maskUnits="userSpaceOnUse" x="0" y="0" width="35" height="35">
<path d="M0 0H35V35H0V0Z" fill="white"/>
</mask>
<g mask="url(#mask0_329_956)">
<path d="M30.6125 33.9746H4.38721V28.9019H30.6125V33.9746Z" stroke="#4CF4CD" stroke-width="1.3" stroke-miterlimit="10"/>
<path d="M15.8906 1.02541V5.31934" stroke="#4CF4CD" stroke-width="1.3" stroke-miterlimit="10"/>
<path d="M8.52637 1.02539H18.6879" stroke="#4CF4CD" stroke-width="1.3" stroke-miterlimit="10"/>
<path d="M11.3242 5.31934V1.02541" stroke="#4CF4CD" stroke-width="1.3" stroke-miterlimit="10"/>
<path d="M21.1046 12.5101C21.1046 14.4111 19.5636 15.9521 17.6627 15.9521C15.7617 15.9521 14.2207 14.4111 14.2207 12.5101C14.2207 10.6092 15.7617 9.06815 17.6627 9.06815C19.5636 9.06815 21.1046 10.6092 21.1046 12.5101Z" stroke="#4CF4CD" stroke-width="1.3" stroke-miterlimit="10"/>
<path d="M21.1046 12.5099H22.4167C26.9432 12.5099 30.6126 16.1794 30.6126 20.7059C30.6126 25.2324 26.9432 28.9019 22.4167 28.9019H19.98" stroke="#4CF4CD" stroke-width="1.3" stroke-miterlimit="10"/>
</g>
</g>
<defs>
<clipPath id="clip0_329_956">
<rect width="35" height="35" fill="white"/>
</clipPath>
</defs>
</svg>
