<svg width="35" height="36" viewBox="0 0 35 36" fill="none" xmlns="http://www.w3.org/2000/svg">
<g clip-path="url(#clip0_323_1233)">
<path d="M17.5 2.45337L30.9999 10.2478V23.8361C30.9999 24.4442 30.8398 25.0415 30.5358 25.5681C30.2317 26.0947 29.7944 26.532 29.2678 26.8361L19.2321 32.6317C18.7054 32.9357 18.1081 33.0958 17.5 33.0958C16.8919 33.0958 16.2945 32.9357 15.7679 32.6317L5.7321 26.8361C5.20549 26.532 4.76818 26.0947 4.46414 25.5681C4.16009 25.0415 4.00002 24.4442 4 23.8361V10.2478L17.5 2.45337Z" stroke="#D4FF62" stroke-width="3" stroke-linecap="round" stroke-linejoin="round"/>
<path d="M17.5 9.38159V18.0421M17.5 18.0421L10 22.3723M17.5 18.0421L25 22.3723" stroke="#D4FF62" stroke-width="3" stroke-linecap="round" stroke-linejoin="round"/>
</g>
<defs>
<clipPath id="clip0_323_1233">
<rect width="35" height="35" fill="white" transform="translate(0 0.5)"/>
</clipPath>
</defs>
</svg>
