<svg width="89" height="89" viewBox="0 0 89 89" fill="none" xmlns="http://www.w3.org/2000/svg">
<path d="M74.8049 25.0313H67.9036L50.9714 41.9561C51.5546 43.4424 51.6082 45.0841 51.1233 46.6053C50.6383 48.1264 49.6444 49.4342 48.3086 50.3087C46.9728 51.1832 45.3767 51.5711 43.7885 51.4072C42.2004 51.2432 40.7171 50.5374 39.5882 49.4085C38.4592 48.2795 37.7534 46.7963 37.5895 45.2081C37.4255 43.62 37.8134 42.0238 38.6879 40.688C39.5624 39.3523 40.8702 38.3583 42.3914 37.8734C43.9125 37.3885 45.5543 37.4421 47.0406 38.0253L63.9691 21.0967V14.1955C63.9695 13.2721 64.3362 12.3865 64.9889 11.7332L71.4043 5.31777C71.523 5.19828 71.6721 5.11339 71.8354 5.07223C71.9987 5.03107 72.1702 5.03519 72.3314 5.08415C72.6614 5.18056 72.9062 5.45498 72.9729 5.79244L74.6788 14.3253L83.2079 16.0311C83.5417 16.0979 83.8161 16.3426 83.9125 16.6727C83.9612 16.833 83.9656 17.0035 83.9251 17.1661C83.8846 17.3287 83.8008 17.4773 83.6826 17.5961L77.2635 24.0115C76.6111 24.6632 75.727 25.0299 74.8049 25.0313Z" fill="#1A2A22"/>
<path d="M9.73437 44.5C9.73437 53.7204 13.3972 62.5632 19.917 69.083C26.4368 75.6029 35.2796 79.2656 44.5 79.2656C49.0655 79.2656 53.5863 78.3664 57.8042 76.6193C62.0222 74.8721 65.8547 72.3113 69.083 69.083C72.3113 65.8547 74.8721 62.0222 76.6193 57.8043C78.3664 53.5863 79.2656 49.0655 79.2656 44.5C79.2656 41.1699 78.7984 37.9511 77.9269 34.9066C77.7537 34.2075 77.8584 33.4685 78.219 32.8451C78.5796 32.2217 79.1679 31.7624 79.8602 31.564C80.5526 31.3656 81.2949 31.4434 81.9309 31.7812C82.567 32.119 83.0473 32.6903 83.2706 33.375C84.2867 36.9128 84.8281 40.6434 84.8281 44.5C84.8281 66.7723 66.7722 84.8281 44.5 84.8281C22.2277 84.8281 4.17188 66.7723 4.17188 44.5C4.17188 22.2278 22.2277 4.17189 44.5 4.17189C48.264 4.16819 52.0057 4.69106 55.625 5.72569C55.9779 5.82468 56.3077 5.99244 56.5956 6.21934C56.8834 6.44624 57.1236 6.72779 57.3022 7.04781C57.4809 7.36783 57.5946 7.72001 57.6367 8.0841C57.6788 8.44819 57.6485 8.81701 57.5476 9.16936C57.4467 9.52171 57.2771 9.85063 57.0486 10.1372C56.8202 10.4238 56.5373 10.6624 56.2163 10.8394C55.8953 11.0163 55.5425 11.128 55.1782 11.1681C54.8139 11.2082 54.4453 11.1759 54.0935 11.0731C50.9735 10.1826 47.7445 9.73199 44.5 9.73439C35.2796 9.73439 26.4368 13.3972 19.917 19.917C13.3972 26.4368 9.73437 35.2796 9.73437 44.5Z" fill="#1A2A22"/>
<path d="M26.4222 44.5C26.4325 46.9561 26.9434 49.3843 27.9235 51.6364C28.9036 53.8885 30.3325 55.9172 32.1228 57.5987C33.9131 59.2801 36.0274 60.5791 38.3365 61.4161C40.6456 62.2532 43.1011 62.6109 45.553 62.4673C48.005 62.3237 50.4019 61.6819 52.5975 60.581C54.7931 59.4802 56.7413 57.9434 58.3232 56.0645C59.905 54.1855 61.0874 52.0039 61.7979 49.6528C62.5085 47.3017 62.7324 44.8305 62.4561 42.3899C62.3782 41.8956 62.4355 41.3895 62.6218 40.9251C62.8082 40.4608 63.1167 40.0555 63.5147 39.7521C63.9126 39.4488 64.3852 39.2588 64.8824 39.2022C65.3795 39.1456 65.8827 39.2246 66.3387 39.4307C67.2695 39.846 67.8962 40.7323 67.9778 41.7484C68.5536 46.6257 67.5955 51.5613 65.2369 55.8691C62.8782 60.1769 59.2361 63.6429 54.8168 65.7852C50.3974 67.9276 45.4205 68.64 40.5776 67.8233C35.7347 67.0066 31.2666 64.7014 27.7943 61.2282C24.3229 57.7588 22.0172 53.2951 21.1969 48.4563C20.3766 43.6174 21.0824 38.6432 23.2164 34.2236C25.3504 29.8039 28.8069 26.1579 33.1064 23.7911C37.4059 21.4243 42.3354 20.4541 47.2111 21.0151C47.5797 21.0493 47.9377 21.1567 48.2643 21.3311C48.5908 21.5055 48.8792 21.7433 49.1127 22.0306C49.3461 22.3178 49.5198 22.6488 49.6237 23.0042C49.7275 23.3595 49.7594 23.7319 49.7175 24.0997C49.6755 24.4675 49.5605 24.8232 49.3793 25.146C49.1981 25.4688 48.9543 25.7521 48.6621 25.9795C48.37 26.2068 48.0354 26.3735 47.678 26.4698C47.3206 26.5662 46.9475 26.5902 46.5807 26.5405C44.048 26.2477 41.482 26.4938 39.0511 27.2626C36.6203 28.0315 34.3795 29.3057 32.4758 31.0017C30.5722 32.6977 29.0487 34.7771 28.0054 37.1034C26.9621 39.4297 26.4226 41.9504 26.4222 44.5Z" fill="#1A2A22"/>
</svg>
