<svg width="86" height="86" viewBox="0 0 86 86" fill="none" xmlns="http://www.w3.org/2000/svg">
<path d="M42.9996 12.9C41.289 12.9 39.6484 13.5795 38.4388 14.7891C37.2292 15.9987 36.5496 17.6393 36.5496 19.35C36.5496 21.0606 37.2292 22.7012 38.4388 23.9108C39.6484 25.1204 41.289 25.8 42.9996 25.8C44.7103 25.8 46.3508 25.1204 47.5604 23.9108C48.7701 22.7012 49.4496 21.0606 49.4496 19.35C49.4496 17.6393 48.7701 15.9987 47.5604 14.7891C46.3508 13.5795 44.7103 12.9 42.9996 12.9ZM32.2496 19.35C32.2496 16.4989 33.3822 13.7646 35.3982 11.7486C37.4142 9.73256 40.1485 8.59998 42.9996 8.59998C45.8507 8.59998 48.585 9.73256 50.601 11.7486C52.617 13.7646 53.7496 16.4989 53.7496 19.35C53.7496 22.2011 52.617 24.9354 50.601 26.9514C48.585 28.9674 45.8507 30.1 42.9996 30.1C40.1485 30.1 37.4142 28.9674 35.3982 26.9514C33.3822 24.9354 32.2496 22.2011 32.2496 19.35ZM66.6496 17.2C65.5092 17.2 64.4155 17.653 63.609 18.4594C62.8026 19.2658 62.3496 20.3595 62.3496 21.5C62.3496 22.6404 62.8026 23.7341 63.609 24.5405C64.4155 25.3469 65.5092 25.8 66.6496 25.8C67.79 25.8 68.8838 25.3469 69.6902 24.5405C70.4966 23.7341 70.9496 22.6404 70.9496 21.5C70.9496 20.3595 70.4966 19.2658 69.6902 18.4594C68.8838 17.653 67.79 17.2 66.6496 17.2ZM58.0496 21.5C58.0496 19.2191 58.9557 17.0317 60.5685 15.4189C62.1813 13.806 64.3687 12.9 66.6496 12.9C68.9305 12.9 71.1179 13.806 72.7307 15.4189C74.3435 17.0317 75.2496 19.2191 75.2496 21.5C75.2496 23.7808 74.3435 25.9683 72.7307 27.5811C71.1179 29.1939 68.9305 30.1 66.6496 30.1C64.3687 30.1 62.1813 29.1939 60.5685 27.5811C58.9557 25.9683 58.0496 23.7808 58.0496 21.5ZM15.0496 21.5C15.0496 20.3595 15.5026 19.2658 16.309 18.4594C17.1155 17.653 18.2092 17.2 19.3496 17.2C20.49 17.2 21.5838 17.653 22.3902 18.4594C23.1966 19.2658 23.6496 20.3595 23.6496 21.5C23.6496 22.6404 23.1966 23.7341 22.3902 24.5405C21.5838 25.3469 20.49 25.8 19.3496 25.8C18.2092 25.8 17.1155 25.3469 16.309 24.5405C15.5026 23.7341 15.0496 22.6404 15.0496 21.5ZM19.3496 12.9C17.0687 12.9 14.8813 13.806 13.2685 15.4189C11.6557 17.0317 10.7496 19.2191 10.7496 21.5C10.7496 23.7808 11.6557 25.9683 13.2685 27.5811C14.8813 29.1939 17.0687 30.1 19.3496 30.1C21.6305 30.1 23.8179 29.1939 25.4307 27.5811C27.0435 25.9683 27.9496 23.7808 27.9496 21.5C27.9496 19.2191 27.0435 17.0317 25.4307 15.4189C23.8179 13.806 21.6305 12.9 19.3496 12.9ZM21.9296 64.4914L21.4996 64.5C19.2187 64.5 17.0313 63.5939 15.4185 61.9811C13.8057 60.3683 12.8996 58.1808 12.8996 55.9V39.775C12.8996 39.4899 13.0129 39.2164 13.2145 39.0148C13.4161 38.8132 13.6895 38.7 13.9746 38.7H21.5598C21.7318 37.1219 22.2908 35.6556 23.1293 34.4H13.9746C11.0076 34.4 8.59961 36.808 8.59961 39.775V55.9C8.59941 57.7409 8.99323 59.5605 9.7546 61.2366C10.516 62.9127 11.6273 64.4064 13.0138 65.6174C14.4003 66.8284 16.03 67.7286 17.7933 68.2575C19.5566 68.7864 21.4127 68.9318 23.2368 68.6839C22.6591 67.3347 22.2211 65.9298 21.9296 64.4914ZM62.7624 68.6839C63.33 68.7613 63.9091 68.8 64.4996 68.8C67.9209 68.8 71.2021 67.4409 73.6213 65.0217C76.0405 62.6024 77.3996 59.3213 77.3996 55.9V39.775C77.3996 36.808 74.9916 34.4 72.0246 34.4H62.8699C63.7127 35.6556 64.2674 37.1219 64.4394 38.7H72.0246C72.3097 38.7 72.5831 38.8132 72.7847 39.0148C72.9863 39.2164 73.0996 39.4899 73.0996 39.775V55.9C73.0999 57.0657 72.8632 58.2194 72.4038 59.2908C71.9445 60.3623 71.2721 61.3291 70.4275 62.1327C69.583 62.9362 68.5838 63.5597 67.4909 63.9652C66.3979 64.3706 65.2339 64.5497 64.0696 64.4914C63.7781 65.9298 63.3401 67.3347 62.7624 68.6839ZM31.1746 34.4C28.2076 34.4 25.7996 36.808 25.7996 39.775V60.2C25.7996 64.7617 27.6117 69.1366 30.8374 72.3622C34.063 75.5878 38.4379 77.4 42.9996 77.4C47.5613 77.4 51.9362 75.5878 55.1618 72.3622C58.3875 69.1366 60.1996 64.7617 60.1996 60.2V39.775C60.1996 36.808 57.7916 34.4 54.8246 34.4H31.1746ZM30.0996 39.775C30.0996 39.4899 30.2129 39.2164 30.4145 39.0148C30.6161 38.8132 30.8895 38.7 31.1746 38.7H54.8246C55.1097 38.7 55.3831 38.8132 55.5847 39.0148C55.7863 39.2164 55.8996 39.4899 55.8996 39.775V60.2C55.8996 63.6213 54.5405 66.9024 52.1213 69.3217C49.7021 71.7409 46.4209 73.1 42.9996 73.1C39.5783 73.1 36.2971 71.7409 33.8779 69.3217C31.4587 66.9024 30.0996 63.6213 30.0996 60.2V39.775Z" fill="#1A2A22"/>
</svg>
