<svg width="41" height="41" viewBox="0 0 41 41" fill="none" xmlns="http://www.w3.org/2000/svg">
<g clip-path="url(#clip0_243_102)">
<path d="M36.8817 0.5H4.11832C2.12 0.5 0.5 2.12 0.5 4.11832V36.8816C0.5 38.88 2.12 40.5 4.11832 40.5H36.8816C38.88 40.5 40.5 38.88 40.5 36.8816V4.11832C40.5 2.12 38.88 0.5 36.8817 0.5ZM12.8777 35.0386C12.8777 35.6202 12.4063 36.0916 11.8247 36.0916H7.34241C6.76084 36.0916 6.28942 35.6202 6.28942 35.0386V16.249C6.28942 15.6674 6.76084 15.196 7.34241 15.196H11.8247C12.4063 15.196 12.8777 15.6674 12.8777 16.249V35.0386ZM9.58356 13.4248C7.23183 13.4248 5.32534 11.5183 5.32534 9.1666C5.32534 6.81487 7.23183 4.90838 9.58356 4.90838C11.9353 4.90838 13.8418 6.81487 13.8418 9.1666C13.8418 11.5183 11.9354 13.4248 9.58356 13.4248ZM36.3021 35.1235C36.3021 35.6581 35.8686 36.0916 35.3339 36.0916H30.5241C29.9894 36.0916 29.5559 35.6581 29.5559 35.1235V26.3101C29.5559 24.9953 29.9416 20.5487 26.12 20.5487C23.1557 20.5487 22.5544 23.5923 22.4337 24.9581V35.1235C22.4337 35.6581 22.0003 36.0916 21.4655 36.0916H16.8136C16.279 36.0916 15.8454 35.6581 15.8454 35.1235V16.1642C15.8454 15.6295 16.279 15.196 16.8136 15.196H21.4655C22.0002 15.196 22.4337 15.6295 22.4337 16.1642V17.8035C23.5329 16.1539 25.1664 14.8807 28.6444 14.8807C36.3462 14.8807 36.3021 22.0761 36.3021 26.0296V35.1235Z" fill="#0077B7"/>
</g>
<defs>
<clipPath id="clip0_243_102">
<rect x="0.5" y="0.5" width="40" height="40" rx="8" fill="white"/>
</clipPath>
</defs>
</svg>
