<svg width="36" height="36" viewBox="0 0 36 36" fill="none" xmlns="http://www.w3.org/2000/svg">
<path d="M29.8969 9.97488C28.134 8.5684 25.9582 7.77932 23.7035 7.72873C21.4488 7.67814 19.2398 8.36885 17.4155 9.69484C17.5381 9.78231 17.6606 9.87566 17.7831 9.97488C22.613 13.6809 22.9452 21.4431 18.3432 25.5197C18.0488 25.7938 17.7391 26.051 17.4155 26.29C19.1754 27.5723 21.295 28.2665 23.4724 28.2739C33.152 28.2034 37.45 16.0716 29.8969 9.97488Z" fill="#582B36"/>
<path d="M20.0707 20.6473L11.1021 27.101C13.0956 27.1479 15.0501 26.543 16.6687 25.3783C18.2873 24.2135 19.4818 22.5525 20.0707 20.6473Z" fill="#8B4556"/>
<path d="M20.4675 17.9924C20.4674 17.6295 20.444 17.2669 20.3974 16.907L7.44922 26.2258C8.06967 26.5253 8.72408 26.7486 9.39818 26.891L20.4091 18.9727C20.4492 18.6475 20.4687 18.32 20.4675 17.9924Z" fill="#8B4556"/>
<path d="M19.5572 14.0128L4.98096 24.4985C5.39832 24.9048 5.8536 25.2702 6.34056 25.5897L20.1582 15.6408C20.0102 15.0802 19.809 14.535 19.5572 14.0128Z" fill="#8B4556"/>
<path d="M17.9407 11.702L3.28283 21.9661C3.25436 21.9879 3.22291 22.0056 3.18945 22.0186C3.46799 22.5909 3.80847 23.131 4.20477 23.6291L18.9735 12.9974C18.6721 12.5331 18.3262 12.0993 17.9407 11.702Z" fill="#8B4556"/>
<path d="M17.0595 10.8909C16.6136 10.5273 16.1328 10.2087 15.6241 9.93982L2.3374 19.2411C2.40732 19.816 2.54039 20.3816 2.73421 20.9274C2.73252 20.9228 17.0703 10.9003 17.0595 10.8909Z" fill="#8B4556"/>
<path d="M3.23047 13.8727L10.2619 8.94202C8.77515 9.1236 7.35602 9.6684 6.12973 10.5283C4.90345 11.3882 3.90773 12.5368 3.23047 13.8727Z" fill="#8B4556"/>
<path d="M12.3098 8.93036L2.5184 15.7925C2.34308 16.4751 2.25293 17.1768 2.25 17.8815L14.3754 9.39136C13.7083 9.15394 13.0146 8.99912 12.3098 8.93036Z" fill="#8B4556"/>
</svg>
