<svg width="36" height="37" viewBox="0 0 36 37" fill="none" xmlns="http://www.w3.org/2000/svg">
<g clip-path="url(#clip0_153_328)">
<path d="M4.15278 24.4971L0.247137 33.5515C-0.0901434 34.334 0.0620172 35.2065 0.644293 35.8286C1.05463 36.2667 1.60258 36.4999 2.17167 36.4999C2.41034 36.4999 2.65314 36.4587 2.89045 36.3744L8.83625 34.2609L4.15278 24.4971Z" fill="#8B4556"/>
<path d="M7.85873 15.9058L5.26074 21.9293L10.8352 33.5504L15.5233 31.884L7.85873 15.9058Z" fill="#8B4556"/>
<path d="M33.9991 7.54547C33.4223 7.62814 33.0218 8.16236 33.1045 8.73886C33.1347 8.95117 33.1594 9.15744 33.1814 9.36096C33.4322 11.6879 33.1317 13.4517 32.2649 14.7363C31.3217 16.1335 29.5732 16.9531 27.914 16.7754C27.5262 16.7336 27.1444 16.6378 26.7797 16.4952C26.8464 16.3801 26.9082 16.2623 26.9648 16.1423C27.2699 15.4963 27.3966 14.7528 27.3471 14.0148C27.3092 13.4517 27.1691 12.8922 26.9261 12.3811C26.4413 11.3616 25.625 10.6645 24.6272 10.4181C23.5264 10.1465 22.3126 10.8782 21.9213 12.049C21.6658 12.8131 21.7331 13.6871 22.1212 14.6465C22.4437 15.4438 22.9158 16.1637 23.4972 16.7751C22.9721 17.055 22.3547 17.2582 21.676 17.3653C21.1006 17.4562 20.7078 17.9962 20.7987 18.5716C20.8806 19.0913 21.3291 19.4618 21.8391 19.4618C21.8938 19.4618 21.9493 19.4577 22.0047 19.4489C23.2652 19.2498 24.3915 18.7886 25.2853 18.1313C26.0279 18.5244 26.8429 18.7817 27.6893 18.8724C27.9198 18.8971 28.1499 18.9092 28.3801 18.9092C30.598 18.9092 32.7543 17.7812 34.0131 15.9162C35.2619 14.0659 35.6476 11.6203 35.1925 8.44003C35.1098 7.86353 34.575 7.4628 33.9991 7.54547ZM23.9219 12.7176C23.9647 12.5896 24.0831 12.4899 24.141 12.4712C24.6308 12.6017 24.9021 13.0367 25.021 13.2869C25.3136 13.9019 25.3278 14.6693 25.0576 15.2419C25.0466 15.2653 25.035 15.2886 25.0232 15.3117C24.6214 14.8896 24.2951 14.3963 24.0768 13.8557C23.8851 13.3817 23.8315 12.9881 23.9219 12.7176Z" fill="#8B4556"/>
<path d="M28.3547 22.9067C28.3547 22.1739 27.7675 21.5801 27.0432 21.5801C26.3187 21.5801 25.7314 22.1739 25.7314 22.9067C25.7314 23.6392 26.3187 24.233 27.0432 24.233C27.7675 24.233 28.3547 23.6392 28.3547 22.9067Z" fill="#8B4556"/>
<path d="M30.3137 8.60123C30.3137 7.86871 29.7265 7.2749 29.0019 7.2749C28.2776 7.2749 27.6904 7.86871 27.6904 8.60123C27.6904 9.33374 28.2776 9.92755 29.0019 9.92755C29.7265 9.92755 30.3137 9.33374 30.3137 8.60123Z" fill="#8B4556"/>
<path d="M32.9545 6.5043C34.5966 6.5043 35.9329 5.15765 35.9329 3.50229C35.9329 1.84665 34.5969 0.5 32.9545 0.5C31.312 0.5 29.9761 1.84665 29.9761 3.50229C29.9761 5.15765 31.3123 6.5043 32.9545 6.5043Z" fill="#8B4556"/>
<path d="M18.9807 13.1335C18.9807 12.4009 18.3935 11.8071 17.6689 11.8071C16.9446 11.8071 16.3574 12.4009 16.3574 13.1335C16.3574 13.866 16.9446 14.4598 17.6689 14.4598C18.3935 14.4598 18.9807 13.866 18.9807 13.1335Z" fill="#8B4556"/>
<path d="M25.8164 3.33316C25.8164 2.60065 25.2289 2.00684 24.5046 2.00684C23.7801 2.00684 23.1929 2.60065 23.1929 3.33316C23.1929 4.06595 23.7801 4.65976 24.5046 4.65976C25.2289 4.65976 25.8164 4.06595 25.8164 3.33316Z" fill="#8B4556"/>
<path d="M17.1821 7.69046H17.6751V8.20242C17.6751 8.78497 18.1473 9.25711 18.7298 9.25711C19.3124 9.25711 19.7845 8.78497 19.7845 8.20242V7.69046H20.2775C20.8601 7.69046 21.3322 7.21805 21.3322 6.63577C21.3322 6.05322 20.8601 5.58109 20.2775 5.58109H19.7845V5.06885C19.7845 4.48657 19.3124 4.01416 18.7298 4.01416C18.1473 4.01416 17.6751 4.48657 17.6751 5.06885V5.58109H17.1821C16.5996 5.58109 16.1274 6.05322 16.1274 6.63577C16.1274 7.21805 16.5996 7.69046 17.1821 7.69046Z" fill="#8B4556"/>
<path d="M10.6352 10.2374C10.2414 9.80806 9.57421 9.77922 9.14492 10.1728C8.71563 10.5667 8.68706 11.2338 9.08065 11.6631L9.49428 12.1141L8.96639 13.3382L17.522 31.174L24.6524 28.6395L24.9542 28.9685C25.1624 29.1954 25.4467 29.3102 25.7318 29.3102C25.9867 29.3102 26.2418 29.2184 26.4445 29.0328C26.8738 28.6389 26.9024 27.9718 26.5088 27.5427L10.6352 10.2374Z" fill="#8B4556"/>
</g>
<defs>
<clipPath id="clip0_153_328">
<rect width="36" height="36" fill="white" transform="translate(0 0.5)"/>
</clipPath>
</defs>
</svg>
