<svg width="41" height="41" viewBox="0 0 41 41" fill="none" xmlns="http://www.w3.org/2000/svg">
<g clip-path="url(#clip0_243_104)">
<path d="M35.0455 0.5H5.95455C2.94208 0.5 0.5 2.94208 0.5 5.95455V35.0455C0.5 38.0579 2.94208 40.5 5.95455 40.5H35.0455C38.0579 40.5 40.5 38.0579 40.5 35.0455V5.95455C40.5 2.94208 38.0579 0.5 35.0455 0.5Z" fill="#1C8ADB"/>
<path d="M31.3956 10.8409L30.982 10.9909L8.53199 19.0796C8.37289 19.1288 8.23462 19.2293 8.13884 19.3656C8.04306 19.5018 7.99519 19.666 8.00272 19.8323C8.01026 19.9987 8.07279 20.1578 8.18049 20.2848C8.2882 20.4118 8.435 20.4995 8.5979 20.5341L14.4093 22.125L15.4934 25.3068L16.5774 28.4886C16.6397 28.6446 16.7391 28.783 16.867 28.8919C16.9949 29.0007 17.1475 29.0767 17.3114 29.1132C17.4754 29.1497 17.6457 29.1456 17.8077 29.1014C17.9698 29.0571 18.1185 28.9739 18.2411 28.8591L21.2433 26.0227L27.1388 30.0205C27.8593 30.5114 28.8865 30.1477 29.0706 29.3386L32.9752 12.0864C33.1661 11.2318 32.2661 10.5296 31.3956 10.8409ZM28.5297 14.6705L18.3865 22.9614L17.9093 23.3523C17.8044 23.4354 17.736 23.556 17.7184 23.6886L17.6115 24.5705L17.3183 27.0477C17.3208 27.0779 17.3111 27.1077 17.2915 27.1308C17.2719 27.1538 17.2439 27.1681 17.2138 27.1705C17.1837 27.1729 17.1538 27.1632 17.1308 27.1436C17.1078 27.124 17.0935 27.0961 17.0911 27.0659L16.2661 24.5909L15.4138 22.0568C15.3778 21.9429 15.3825 21.82 15.4273 21.7093C15.4721 21.5985 15.5542 21.5068 15.6593 21.45L26.2138 15.4L28.2002 14.2636C28.4888 14.0955 28.7843 14.4614 28.5297 14.6705Z" fill="white"/>
</g>
<defs>
<clipPath id="clip0_243_104">
<rect x="0.5" y="0.5" width="40" height="40" rx="8" fill="white"/>
</clipPath>
</defs>
</svg>
