<svg width="36" height="32" viewBox="0 0 36 32" fill="none" xmlns="http://www.w3.org/2000/svg">
<path d="M35.8945 16.4596L28.807 31.0902C28.6305 31.4538 28.2621 31.6851 27.8578 31.6851H5.27344C4.69125 31.6851 4.21875 31.2126 4.21875 30.6304V29.0069H23.592C24.7802 29.0069 25.882 28.3164 26.3988 27.247L31.1892 17.3596C31.6076 16.4955 31.6076 15.5041 31.1892 14.6406L26.3981 4.75117C25.882 3.68312 24.7802 2.99266 23.592 2.99266H4.21875V1.36914C4.21875 0.786953 4.69125 0.314453 5.27344 0.314453H27.8578C28.2621 0.314453 28.6305 0.545781 28.807 0.909297L35.8945 15.5399C36.0352 15.8303 36.0352 16.1692 35.8945 16.4596Z" fill="#8B4556"/>
<path d="M16.9646 10.9023C15.661 10.9023 14.6006 11.9628 14.6006 13.2663V18.7337C14.6006 20.0372 15.661 21.0977 16.9646 21.0977C18.2681 21.0977 19.3285 20.0372 19.3285 18.7337V13.2663C19.3285 11.9628 18.2681 10.9023 16.9646 10.9023Z" fill="#59829E"/>
<path d="M29.2908 15.5596L24.5004 5.67088C24.3316 5.32353 23.9787 5.10205 23.592 5.10205H1.00898C0.452109 5.10205 0 5.55416 0 6.11103V25.8885C0 26.4454 0.452109 26.8975 1.00898 26.8975H23.592C23.9787 26.8975 24.3316 26.676 24.5004 26.3287L29.2908 16.4399C29.4251 16.1622 29.4251 15.8374 29.2908 15.5596ZM9.87363 22.1521C9.87363 22.7346 9.40141 23.2068 8.81895 23.2068C8.23648 23.2068 7.76426 22.7346 7.76426 22.1521V12.6012L6.9738 13.4817C6.5847 13.9152 5.91778 13.9511 5.48438 13.562C5.05097 13.1729 5.01497 12.506 5.40408 12.0725L8.03405 9.14284C8.32591 8.81771 8.78822 8.70634 9.1961 8.8625C9.60413 9.01881 9.87356 9.41052 9.87356 9.84744V22.1521H9.87363ZM21.4377 18.7335C21.4377 21.2001 19.431 23.2068 16.9644 23.2068C14.4977 23.2068 12.491 21.2001 12.491 18.7335V13.2661C12.491 10.7995 14.4977 8.79275 16.9644 8.79275C19.431 8.79275 21.4377 10.7995 21.4377 13.2661V18.7335Z" fill="#59829E"/>
</svg>
