<svg width="41" height="41" viewBox="0 0 41 41" fill="none" xmlns="http://www.w3.org/2000/svg">
<g opacity="0.9">
<g clip-path="url(#clip0_243_109)">
<path d="M36.7886 0.5H4.21136C2.16163 0.5 0.5 2.16163 0.5 4.21136V36.7886C0.5 38.8384 2.16163 40.5 4.21136 40.5H36.7886C38.8384 40.5 40.5 38.8384 40.5 36.7886V4.21136C40.5 2.16163 38.8384 0.5 36.7886 0.5Z" fill="#27A11A"/>
<path d="M29.318 11.6818C27.2372 9.58023 24.4738 8.29139 21.5264 8.04778C18.579 7.80417 15.6416 8.62183 13.2439 10.3533C10.8463 12.0847 9.14629 14.616 8.45059 17.4904C7.75488 20.3649 8.10926 23.3934 9.44981 26.0295L8.1339 32.4182C8.12024 32.4818 8.11986 32.5475 8.13276 32.6112C8.14567 32.675 8.17158 32.7354 8.2089 32.7886C8.26356 32.8695 8.34158 32.9317 8.43254 32.9671C8.52351 33.0024 8.62309 33.0091 8.71799 32.9864L14.9794 31.5023C17.6081 32.8089 20.6152 33.1405 23.4655 32.438C26.3158 31.7356 28.8245 30.0447 30.5452 27.6663C32.2658 25.2878 33.0868 22.376 32.8621 19.4491C32.6374 16.5221 31.3815 13.7698 29.318 11.6818ZM27.3657 27.2636C25.926 28.6993 24.0721 29.647 22.0652 29.9732C20.0583 30.2994 17.9997 29.9876 16.1794 29.0818L15.3066 28.65L11.468 29.5591L11.4794 29.5114L12.2748 25.6477L11.8475 24.8045C10.9174 22.9779 10.5893 20.9037 10.9102 18.8792C11.2311 16.8546 12.1845 14.9836 13.6339 13.5341C15.455 11.7135 17.9247 10.6908 20.4998 10.6908C23.0749 10.6908 25.5446 11.7135 27.3657 13.5341C27.3812 13.5519 27.3979 13.5686 27.4157 13.5841C29.2143 15.4094 30.2183 17.8717 30.209 20.4342C30.1996 22.9967 29.1776 25.4516 27.3657 27.2636Z" fill="white"/>
<path d="M27.0249 24.4296C26.5545 25.1705 25.8113 26.0773 24.8772 26.3023C23.2408 26.6977 20.7295 26.3159 17.6045 23.4023L17.5658 23.3682C14.8181 20.8205 14.1045 18.7 14.2772 17.0182C14.3727 16.0636 15.1681 15.2 15.8386 14.6364C15.9446 14.5459 16.0703 14.4815 16.2056 14.4483C16.3409 14.4151 16.4822 14.414 16.618 14.4452C16.7538 14.4763 16.8805 14.5388 16.9879 14.6276C17.0952 14.7165 17.1803 14.8292 17.2363 14.9568L18.2477 17.2296C18.3134 17.3769 18.3377 17.5394 18.3181 17.6996C18.2985 17.8597 18.2356 18.0115 18.1363 18.1386L17.6249 18.8023C17.5152 18.9393 17.449 19.106 17.4348 19.281C17.4206 19.456 17.4592 19.6312 17.5454 19.7841C17.8317 20.2864 18.5181 21.025 19.2795 21.7091C20.134 22.4818 21.0817 23.1886 21.6817 23.4296C21.8423 23.4951 22.0188 23.5112 22.1885 23.4755C22.3583 23.4399 22.5134 23.3542 22.634 23.2296L23.2272 22.6318C23.3417 22.519 23.484 22.4385 23.6397 22.3985C23.7954 22.3586 23.9589 22.3607 24.1136 22.4046L26.5158 23.0864C26.6484 23.127 26.7698 23.1974 26.8709 23.2922C26.9721 23.387 27.0502 23.5037 27.0993 23.6333C27.1484 23.7629 27.1673 23.902 27.1544 24.04C27.1415 24.1781 27.0972 24.3113 27.0249 24.4296Z" fill="white"/>
</g>
</g>
<defs>
<clipPath id="clip0_243_109">
<rect x="0.5" y="0.5" width="40" height="40" rx="8" fill="white"/>
</clipPath>
</defs>
</svg>
