<svg width="89" height="89" viewBox="0 0 89 89" fill="none" xmlns="http://www.w3.org/2000/svg">
<path d="M9.27051 10.1979C9.27051 9.46024 8.97748 8.75282 8.4559 8.23123C7.93431 7.70965 7.22689 7.41663 6.48926 7.41663C5.75162 7.41663 5.0442 7.70965 4.52262 8.23123C4.00103 8.75282 3.70801 9.46024 3.70801 10.1979V78.802C3.70801 80.3373 4.95401 81.5833 6.48926 81.5833H74.1663C74.904 81.5833 75.6114 81.2903 76.133 80.7687C76.6546 80.2471 76.9476 79.5397 76.9476 78.802C76.9476 78.0644 76.6546 77.357 76.133 76.8354C75.6114 76.3138 74.904 76.0208 74.1663 76.0208H9.27051V10.1979Z" fill="#1A2A22"/>
<path d="M82.6217 28.8509C83.113 28.3236 83.3804 27.6263 83.3677 26.9058C83.355 26.1852 83.0631 25.4978 82.5535 24.9882C82.044 24.4786 81.3565 24.1867 80.636 24.174C79.9154 24.1613 79.2181 24.4288 78.6909 24.92L57.4792 46.1317L43.6842 32.3367C43.1627 31.8159 42.4558 31.5233 41.7188 31.5233C40.9818 31.5233 40.2749 31.8159 39.7534 32.3367L17.5034 54.5867C17.2301 54.8413 17.0109 55.1484 16.8589 55.4895C16.7069 55.8307 16.6252 56.199 16.6186 56.5724C16.612 56.9459 16.6807 57.3168 16.8206 57.6631C16.9605 58.0094 17.1687 58.324 17.4328 58.5881C17.6969 58.8522 18.0115 59.0604 18.3578 59.2003C18.7041 59.3402 19.075 59.4089 19.4485 59.4023C19.8219 59.3957 20.1902 59.314 20.5314 59.162C20.8725 59.01 21.1796 58.7908 21.4342 58.5175L41.7188 38.233L55.5138 52.028C56.0353 52.5488 56.7422 52.8413 57.4792 52.8413C58.2162 52.8413 58.9231 52.5488 59.4446 52.028L82.6217 28.8509Z" fill="#1A2A22"/>
</svg>
