<svg width="36" height="37" viewBox="0 0 36 37" fill="none" xmlns="http://www.w3.org/2000/svg">
<path d="M13.2002 11.3001H6.00022C6.00022 8.64942 8.1505 6.50022 10.8001 6.50022V4.1001C6.82498 4.1001 3.6001 7.32282 3.6001 11.3001V20.9002C3.6001 22.2196 4.68046 23.3 6.00022 23.3H13.2002C14.5196 23.3 15.6 22.2196 15.6 20.9002V13.7002C15.6 12.3805 14.5196 11.3001 13.2002 11.3001Z" fill="#59829E"/>
<path d="M25.1998 13.7002V16.1C27.8494 16.1 29.9997 18.2495 29.9997 20.9002H22.7997C21.4803 20.9002 20.3999 21.9806 20.3999 23.3V30.5C20.3999 31.8197 21.4803 32.9001 22.7997 32.9001H29.9997C31.3194 32.9001 32.3998 31.8197 32.3998 30.5V20.9002C32.3998 16.9226 29.1749 13.7002 25.1998 13.7002Z" fill="#8B4556"/>
</svg>
