<svg width="36" height="36" viewBox="0 0 36 36" fill="none" xmlns="http://www.w3.org/2000/svg">
<path d="M7.46824 14.5276C4.48941 13.3361 3 12.7403 3 12C3 11.2597 4.48941 10.6639 7.46824 9.47238L11.6809 7.7873C14.6598 6.59577 16.1491 6 18 6C19.8508 6 21.3402 6.59577 24.319 7.7873L28.5318 9.47238C31.5106 10.6639 33 11.2597 33 12C33 12.7403 31.5106 13.3361 28.5318 14.5276L24.319 16.2128C21.3402 17.4042 19.8508 18 18 18C16.1491 18 14.6598 17.4042 11.6809 16.2128L7.46824 14.5276Z" fill="#92ACB9"/>
<path fill-rule="evenodd" clip-rule="evenodd" d="M3 12C3 12.7403 4.48941 13.3361 7.46824 14.5276L11.6809 16.2128C14.6598 17.4042 16.1491 18 18 18C19.8508 18 21.3402 17.4042 24.319 16.2128L28.5318 14.5276C31.5106 13.3361 33 12.7403 33 12C33 11.2597 31.5106 10.6639 28.5318 9.47238L24.319 7.7873C21.3402 6.59577 19.8508 6 18 6C16.1491 6 14.6598 6.59577 11.6809 7.7873L7.46824 9.47238C4.48941 10.6639 3 11.2597 3 12Z" fill="#92ACB9"/>
<path d="M28.5318 20.5277L24.319 22.2128C21.3402 23.4042 19.8508 24 18 24C16.1491 24 14.6598 23.4042 11.6809 22.2128L7.46824 20.5277C4.48941 19.3361 3 18.7403 3 18C3 17.3327 4.21022 16.7828 6.63065 15.8082L11.3421 17.6928C14.1151 18.8025 15.858 19.5 18 19.5C20.142 19.5 21.8848 18.8025 24.6579 17.6928L29.3694 15.8082C31.7898 16.7828 33 17.3327 33 18C33 18.7403 31.5106 19.3361 28.5318 20.5277Z" fill="#59829E"/>
<path d="M28.5318 26.5273L24.319 28.2124C21.3402 29.4039 19.8508 29.9997 18 29.9997C16.1491 29.9997 14.6598 29.4039 11.6809 28.2124L7.46824 26.5273C4.48941 25.3357 3 24.7401 3 23.9997C3 23.3323 4.21022 22.7824 6.63065 21.8079L11.3421 23.6925C14.1151 24.8022 15.858 25.4997 18 25.4997C20.142 25.4997 21.8848 24.8022 24.6579 23.6925L29.3694 21.8079C31.7898 22.7824 33 23.3323 33 23.9997C33 24.7401 31.5106 25.3357 28.5318 26.5273Z" fill="#0C293D"/>
</svg>
