<svg width="142" height="28" viewBox="0 -0.5 142 28" fill="none" xmlns="http://www.w3.org/2000/svg">
<mask id="mask0_4589_4640" style="mask-type:luminance" maskUnits="userSpaceOnUse" x="0" y="-1" width="142" height="29">
<path d="M142 -1H0V27.5H142V-1Z" fill="white"/>
</mask>
<g mask="url(#mask0_4589_4640)">
<path d="M67.0217 5.5507C66.8424 5.83703 66.6515 6.05205 66.4486 6.19522C66.2575 6.33838 66.0068 6.40996 65.6964 6.40996C65.4218 6.40996 65.1232 6.32645 64.8007 6.15942C64.4902 5.98047 64.1321 5.78327 63.726 5.56852C63.332 5.35377 62.8782 5.16275 62.3649 4.99558C61.8516 4.81663 61.2663 4.72708 60.6095 4.72708C59.4752 4.72708 58.6275 4.97172 58.0663 5.46115C57.5171 5.9385 57.2423 6.58906 57.2423 7.41254C57.2423 7.93775 57.4095 8.37342 57.7439 8.71955C58.0783 9.0658 58.5142 9.3642 59.0513 9.61474C59.6007 9.86556 60.2215 10.0983 60.914 10.313C61.6187 10.516 62.335 10.7487 63.0634 11.0113C63.7918 11.2618 64.5022 11.5602 65.1947 11.9064C65.8994 12.2526 66.5201 12.6942 67.0575 13.2313C67.6068 13.7685 68.0486 14.4249 68.3829 15.2007C68.7173 15.9646 68.8844 16.8896 68.8844 17.9758C68.8844 19.1814 68.6755 20.3091 68.2575 21.3596C67.8396 22.4099 67.2305 23.3291 66.4306 24.1167C65.6427 24.8925 64.6636 25.5071 63.4934 25.9608C62.335 26.4023 61.0155 26.6232 59.5349 26.6232C58.723 26.6232 57.8931 26.5396 57.0454 26.3727C56.2095 26.2054 55.3977 25.9728 54.6094 25.6744C53.8213 25.364 53.0812 24.9999 52.3885 24.5822C51.696 24.1646 51.0929 23.699 50.5796 23.1858L52.3707 20.357C52.5139 20.154 52.699 19.987 52.9259 19.8556C53.1647 19.7123 53.4214 19.6408 53.696 19.6408C54.0542 19.6408 54.4124 19.7543 54.7708 19.9811C55.1408 20.2077 55.5529 20.4585 56.0065 20.7329C56.4722 21.0074 57.0035 21.2581 57.6006 21.4848C58.1976 21.7116 58.902 21.8251 59.714 21.8251C60.8125 21.8251 61.6664 21.5862 62.2754 21.1089C62.8843 20.6196 63.1889 19.8497 63.1889 18.7993C63.1889 18.1906 63.0216 17.6953 62.6872 17.3133C62.3528 16.9313 61.9112 16.6151 61.362 16.3645C60.8246 16.1139 60.2096 15.8931 59.5171 15.702C58.8245 15.511 58.1141 15.3022 57.3857 15.0753C56.6573 14.8367 55.9469 14.5501 55.2543 14.2159C54.5616 13.8698 53.9409 13.4224 53.3916 12.8731C52.8542 12.3121 52.4185 11.62 52.0841 10.7964C51.7497 9.96086 51.5825 8.93443 51.5825 7.71697C51.5825 6.73826 51.7796 5.78327 52.1736 4.85242C52.5676 3.92143 53.1469 3.09192 53.911 2.36388C54.6752 1.63571 55.6125 1.05674 56.7229 0.627239C57.8334 0.185673 59.1052 -0.0352478 60.538 -0.0352478C61.3379 -0.0352478 62.1141 0.0304391 62.8664 0.161675C63.6307 0.28098 64.3529 0.466108 65.0337 0.716648C65.7143 0.955532 66.3471 1.24776 66.9323 1.59402C67.5292 1.92807 68.0604 2.31012 68.5263 2.7399L67.0217 5.5507ZM85.4414 12.1751C85.2744 12.3778 85.1131 12.539 84.9579 12.6584C84.8027 12.7778 84.5819 12.8374 84.2953 12.8374C84.0206 12.8374 83.7698 12.7718 83.5428 12.6404C83.328 12.5093 83.0832 12.3659 82.8087 12.2109C82.534 12.0438 82.2117 11.8946 81.8414 11.7632C81.4712 11.632 81.0115 11.5663 80.4622 11.5663C79.7816 11.5663 79.1905 11.6916 78.6891 11.9421C78.1996 12.193 77.7936 12.551 77.4712 13.0166C77.1488 13.4819 76.91 14.0549 76.7548 14.7353C76.5994 15.4036 76.5219 16.1614 76.5219 17.009C76.5219 18.7874 76.8622 20.154 77.5428 21.1089C78.2354 22.0639 79.1846 22.5412 80.3905 22.5412C81.0353 22.5412 81.5429 22.4636 81.913 22.3084C82.2952 22.1414 82.6176 21.9624 82.8802 21.7714C83.1429 21.5684 83.3817 21.3836 83.5968 21.2163C83.8235 21.0494 84.1042 20.9657 84.4385 20.9657C84.8801 20.9657 85.2145 21.1269 85.4414 21.449L87.0535 23.4364C86.4803 24.0927 85.8773 24.6299 85.2445 25.0477C84.6115 25.4535 83.9609 25.7759 83.2923 26.0145C82.6355 26.2412 81.9729 26.3964 81.3041 26.4801C80.6355 26.5754 79.9846 26.6232 79.3518 26.6232C78.2174 26.6232 77.131 26.4085 76.0919 25.9787C75.0653 25.5491 74.1576 24.9283 73.3696 24.1167C72.5934 23.2933 71.9726 22.2845 71.5069 21.0911C71.0531 19.8975 70.8261 18.5367 70.8261 17.009C70.8261 15.6721 71.0232 14.4249 71.4172 13.2671C71.8233 12.0974 72.4144 11.0889 73.1904 10.2414C73.9787 9.38203 74.9458 8.70761 76.0919 8.21846C77.2503 7.72904 78.5877 7.4844 80.1041 7.4844C81.5607 7.4844 82.8385 7.71697 83.9371 8.1824C85.0356 8.64796 86.0266 9.32841 86.9102 10.2235L85.4414 12.1751ZM97.4612 7.4844C98.87 7.4844 100.154 7.70504 101.312 8.14661C102.47 8.58845 103.461 9.2209 104.285 10.0445C105.121 10.8681 105.766 11.8706 106.219 13.0524C106.685 14.2221 106.918 15.5409 106.918 17.009C106.918 18.489 106.685 19.8259 106.219 21.0195C105.766 22.201 105.121 23.2096 104.285 24.0452C103.461 24.8688 102.47 25.5071 101.312 25.9608C100.154 26.4023 98.87 26.6232 97.4612 26.6232C96.0402 26.6232 94.7448 26.4023 93.5746 25.9608C92.4162 25.5071 91.4132 24.8688 90.5655 24.0452C89.7296 23.2096 89.0789 22.201 88.6132 21.0195C88.1595 19.8259 87.9325 18.489 87.9325 17.009C87.9325 15.5409 88.1595 14.2221 88.6132 13.0524C89.0789 11.8706 89.7296 10.8681 90.5655 10.0445C91.4132 9.2209 92.4162 8.58845 93.5746 8.14661C94.7448 7.70504 96.0402 7.4844 97.4612 7.4844ZM97.4612 22.5054C98.7388 22.5054 99.6762 22.0578 100.273 21.1626C100.882 20.2555 101.187 18.883 101.187 17.0448C101.187 15.2067 100.882 13.8401 100.273 12.945C99.6762 12.0497 98.7388 11.6021 97.4612 11.6021C96.1476 11.6021 95.1865 12.0497 94.5775 12.945C93.9686 13.8401 93.6641 15.2067 93.6641 17.0448C93.6641 18.883 93.9686 20.2555 94.5775 21.1626C95.1865 22.0578 96.1476 22.5054 97.4612 22.5054ZM126.372 7.77073V26.3369H122.933C122.241 26.3369 121.786 26.0264 121.572 25.4057L121.249 24.3315C120.891 24.6778 120.522 24.994 120.14 25.2804C119.757 25.555 119.345 25.7937 118.903 25.9966C118.473 26.1876 118.002 26.3369 117.488 26.4443C116.987 26.5636 116.438 26.6232 115.841 26.6232C114.826 26.6232 113.924 26.4502 113.136 26.1039C112.36 25.746 111.703 25.2507 111.166 24.618C110.629 23.9854 110.223 23.2395 109.948 22.3801C109.673 21.5206 109.536 20.5779 109.536 19.5513V7.77073H115.089V19.5513C115.089 20.4703 115.297 21.1805 115.715 21.6818C116.133 22.183 116.748 22.4339 117.56 22.4339C118.169 22.4339 118.736 22.3084 119.262 22.0578C119.799 21.7952 120.318 21.4431 120.82 21.0015V7.77073H126.372ZM136.788 26.6232C135.905 26.6232 135.123 26.4979 134.443 26.2474C133.774 25.9848 133.207 25.6207 132.741 25.1551C132.287 24.6778 131.941 24.1048 131.702 23.4364C131.463 22.768 131.345 22.0219 131.345 21.1984V11.6021H129.768C129.481 11.6021 129.237 11.5127 129.033 11.3334C128.83 11.1427 128.728 10.8681 128.728 10.5099V8.34366L131.684 7.77073L132.777 3.24111C132.92 2.66804 133.326 2.38171 133.995 2.38171H136.897V7.80652H141.499V11.6021H136.897V20.8226C136.897 21.2521 136.999 21.6102 137.2 21.8967C137.416 22.1712 137.72 22.3084 138.114 22.3084C138.317 22.3084 138.484 22.2904 138.616 22.2546C138.759 22.207 138.879 22.1593 138.973 22.1115C139.082 22.0518 139.177 22.0041 139.26 21.9683C139.357 21.9204 139.464 21.8967 139.583 21.8967C139.751 21.8967 139.881 21.9384 139.977 22.0219C140.084 22.0936 140.191 22.2129 140.3 22.3801L141.984 25.0119C141.267 25.5491 140.461 25.9549 139.565 26.2293C138.67 26.492 137.744 26.6232 136.788 26.6232Z" fill="#FEF9ED"/>
<mask id="mask1_4589_4640" style="mask-type:luminance" maskUnits="userSpaceOnUse" x="-14" y="-8" width="74" height="43">
<path d="M59.6985 -7.65198H-13.3154V34.2398H59.6985V-7.65198Z" fill="white"/>
</mask>
<g mask="url(#mask1_4589_4640)">
<path d="M32.583 11.5642H26.2236V14.9462H32.583H44.7892C45.7212 14.9462 46.4769 14.1891 46.4769 13.2551C46.4769 12.3213 45.7212 11.5642 44.7892 11.5642H32.583Z" fill="#EE4D28"/>
<path d="M36.1545 14.8857V19.9588L36.6509 20.5556L37.4979 20.7255C37.5946 20.7448 37.6935 20.7496 37.7914 20.7399L38.6365 20.6551L39.1328 20.0582V18.6656V17.2732H40.3243H41.4162V18.4666V20.0582L41.9127 20.5556L42.7107 20.7155C42.8395 20.7412 42.9716 20.7412 43.1003 20.7155L43.8985 20.5556L44.2955 19.9588V14.8857H36.1545Z" fill="#EE4D28"/>
<path fill-rule="evenodd" clip-rule="evenodd" d="M10.0847 6.55546C8.16889 6.87443 6.7644 8.53469 6.7644 10.4806V22.6448H7.75731V11.3022C7.75731 9.3834 9.12388 7.73795 11.007 7.3895L11.7164 7.25826H13.2327H14.9173L15.6268 7.3895C17.51 7.73795 18.8767 9.3834 18.8767 11.3022V22.6448H19.8693V10.4806C19.8693 8.53469 18.465 6.87443 16.5491 6.55546L15.2032 6.33139H13.2177H11.4305L10.0847 6.55546Z" fill="#FEF9ED"/>
<path d="M10.7345 18.2678C11.2827 18.2678 11.7272 17.8227 11.7272 17.2732C11.7272 16.7239 11.2827 16.2785 10.7345 16.2785C10.1861 16.2785 9.7417 16.7239 9.7417 17.2732C9.7417 17.8227 10.1861 18.2678 10.7345 18.2678Z" fill="#EE4D28"/>
<path fill-rule="evenodd" clip-rule="evenodd" d="M13.3178 26.6232C20.6653 26.6232 26.6214 20.6555 26.6214 13.294C26.6214 5.93247 20.6653 -0.0352478 13.3178 -0.0352478C5.97047 -0.0352478 0.0141602 5.93247 0.0141602 13.294C0.0141602 20.6555 5.97047 26.6232 13.3178 26.6232ZM13.3178 23.838C19.2396 23.838 24.0402 19.0282 24.0402 13.095C24.0402 7.16172 19.2396 2.35195 13.3178 2.35195C7.39596 2.35195 2.59557 7.16172 2.59557 13.095C2.59557 19.0282 7.39596 23.838 13.3178 23.838Z" fill="#EE4D28"/>
</g>
</g>
</svg>
